PathFileType	4	(X/Y/Z)	C:/Users/beibeiliu/ov580/test_trc/capture2\sequence.14_training_dense_left.trc
DataRate	CameraRate	NumFrames	NumMarkers	Units	OrigDataRate	OrigDataStartFrame	OrigNumFrames
120	120	23	19	mm	120	201	400
Frame#	Time	ThumbCMC			ThumbMCP			ThumbIP			ThumbTip			IndexMCP			IndexPIP			IndexTip			MiddleMCP			MiddlePIP			MiddleTip			RingMCP			RingPIP			RingTip			PinkyMCP			PinkyPIP			PinkyTip			BackHand1			BackHand2			BackHand3	
		X0	Y0	Z0	X1	Y1	Z1	X2	Y2	Z2	X3	Y3	Z3	X4	Y4	Z4	X5	Y5	Z5	X6	Y6	Z6	X7	Y7	Z7	X8	Y8	Z8	X9	Y9	Z9	X10	Y10	Z10	X11	Y11	Z11	X12	Y12	Z12	X13	Y13	Z13	X14	Y14	Z14	X15	Y15	Z15	X16	Y16	Z16	X17	Y17	Z17	X18	Y18	Z18	
200	1.66667	-55.7405	31.2777	-1.55111	-55.1227	7.83283	-21.0944	-63.9727	-3.95137	-47.1381	-89.6726	9.49276	-53.5719	-58.9978	5.30493	-71.9202	-67.4514	-22.074	-70.17	-81.5567	-30.3218	-38.9374	-81.4138	11.2696	-73.4627	-90.7039	-20.5686	-58.5407	-94.4109	-6.72946	-25.8827	-96.3632	15.1994	-69.7403	-107.657	-9.50863	-53.1943	-95.8958	7.27493	-23.9128	-115.497	33.4789	-71.8438	-124.389	17.5925	-85.2516	-136.338	3.87017	-105.263	-90.9885	64.0968	-41.2757	-93.1539	78.6227	-15.0501	-63.2313	62.6647	-21.3648	
201	1.675	-53.7053	36.0992	-1.68461	-48.9545	9.43019	-17.3033	-57.7507	-0.136252	-42.8672	-84.8914	7.57135	-54.6754	-56.6303	9.93951	-68.8012	-66.4795	-21.3824	-64.5909	-76.4967	-23.6054	-36.6147	-74.8363	9.17076	-72.9723	-86.8467	-18.0533	-54.9746	-89.2324	-3.77273	-23.3313	-98.6127	11.9074	-71.6052	-104.658	-8.75129	-47.4234	-95.0539	13.3361	-22.2178	-116.636	30.3373	-74.1702	-124.858	11.2955	-87.077	-132.2	-4.01861	-100.606	-91.5115	63.8529	-47.472	-92.7375	80.3866	-16.1217	-62.9475	66.703	-22.7927	
202	1.68333	-55.4725	44.0883	0.573307	-51.5329	20.8892	-22.0853	-57.9726	7.66619	-45.5462	-84.8318	10.6761	-56.6501	-50.9484	14.9207	-67.5424	-58.2286	-18.6288	-64.1042	-72.8124	-17.261	-35.4173	-72.0062	12.4962	-72.1291	-80.3615	-17.1716	-53.5344	-87.9263	0.6069	-24.1542	-91.3174	12.5451	-70.9046	-96.8523	-9.21853	-51.5606	-92.4372	11.6897	-24.6909	-114.947	25.4644	-76.3497	-120.804	10.6488	-84.0552	-128.541	-8.68692	-99.6406	-91.8669	63.9046	-49.2345	-95.2416	82.6595	-22.3612	-65.9899	67.4311	-28.8131	
203	1.69167	-55.7315	50.7758	-5.83665	-48.8066	25.1691	-25.6767	-56.3566	11.586	-50.2752	-84.2745	17.1586	-55.6355	-52.8802	20.3984	-71.7294	-52.9648	-11.2431	-68.7001	-68.4411	-12.4619	-36.9225	-72.6972	16.1894	-73.6613	-76.541	-12.7846	-56.129	-80.2685	4.28072	-25.1933	-94.9182	14.8259	-72.5138	-93.766	-6.09292	-47.5716	-93.1335	18.8404	-24.4829	-115.219	28.0823	-75.0325	-119.216	5.62262	-86.1914	-123.18	-12.3553	-97.2783	-99.0959	66.2126	-53.6235	-106.231	85.9169	-26.4073	-67.6846	72.6288	-31.0373	
204	1.7	-63.3085	58.644	-10.3255	-51.2421	33.9005	-28.0846	-57.8696	20.3532	-48.4395	-87.8841	20.4648	-59.7365	-50.5329	23.799	-75.6882	-57.0547	-5.3601	-70.9357	-66.7343	-5.81651	-38.2413	-76.7604	19.5564	-77.9555	-77.8858	-8.4112	-62.1053	-85.184	9.12908	-29.1763	-93.2732	17.492	-74.6586	-93.5922	-3.11724	-49.7918	-94.239	18.2374	-27.907	-118.134	28.4528	-77.809	-120.267	6.09805	-86.4922	-125.154	-14.8132	-98.1423	-101.404	70.1094	-55.1525	-108.489	87.0152	-29.6773	-75.9144	80.3148	-35.0167	
205	1.70833	-64.1485	62.6045	-12.2775	-54.8157	38.8786	-26.8299	-59.652	23.9775	-54.6899	-84.6453	20.0037	-66.0367	-57.0216	34.1792	-77.6646	-53.0034	0.719216	-76.367	-66.9668	-6.84639	-47.0615	-76.8705	24.3234	-81.136	-81.1602	-4.74607	-65.3195	-85.7038	13.679	-31.7571	-99.7649	16.8683	-78.3377	-97.5057	-1.51843	-52.0867	-92.9187	19.967	-30.2093	-119.944	26.6934	-83.0028	-123.036	6.87246	-88.0279	-122.965	-11.7478	-100.407	-107.842	73.9466	-58.7061	-120.286	88.6038	-32.5856	-84.3633	83.8291	-37.9188	
206	1.71667	-71.5839	64.1712	-16.446	-61.659	39.6305	-29.09	-59.7515	24.2282	-52.5238	-81.3415	16.1929	-72.7881	-63.4826	37.8938	-82.6351	-55.9489	4.73282	-82.4564	-65.8667	-10.8364	-56.7658	-81.0344	26.1553	-84.1427	-85.123	-1.04705	-67.8224	-86.6399	16.042	-36.3289	-104.51	22.116	-80.1382	-98.5618	0.880046	-56.191	-99.9607	26.4156	-32.1761	-126.47	30.8062	-81.19	-125.658	7.50576	-90.3385	-125.156	-15.001	-104.41	-113.728	75.3584	-60.8733	-126.971	91.4761	-33.3648	-87.6233	84.8002	-41.2301	
207	1.725	-78.5818	66.6104	-17.3963	-67.4657	37.7004	-28.0038	-60.4479	19.8823	-50.5275	-68.9586	6.53431	-71.6391	-64.5572	41.0062	-85.4322	-56.3546	12.8153	-87.8968	-63.62	-11.2352	-70.5008	-86.8588	28.4609	-86.9588	-85.7734	2.49269	-70.3557	-91.842	23.0891	-38.2334	-103.286	23.4692	-81.6479	-104.093	2.60026	-59.3506	-100.913	25.0395	-35.411	-133.354	27.7932	-84.4727	-132.075	7.27615	-92.1459	-130.866	-16.5337	-102.75	-121.122	75.7434	-61.0799	-131.8	91.1853	-37.8563	-97.4659	88.9342	-40.6295	
208	1.73333	-84.4635	69.0453	-18.212	-74.5929	40.1886	-31.673	-63.6764	19.5675	-49.5914	-68.6599	3.39418	-72.0572	-70.3315	44.2688	-87.3735	-55.7011	17.1925	-90.5172	-59.6448	-9.46278	-81.0443	-91.4622	33.1179	-88.8174	-85.7537	6.9282	-70.3212	-95.8583	30.1311	-40.1951	-111.418	24.624	-84.5665	-99.9737	6.53428	-59.1787	-103.806	29.8405	-35.8051	-132.132	28.4942	-87.03	-130.038	4.38195	-94.1568	-129.996	-12.8501	-103.241	-129.162	75.7435	-61.1519	-140.822	89.6661	-37.5875	-106.542	89.9285	-44.5899	
209	1.74167	-89.07	72.4781	-21.4058	-75.8659	45.0192	-30.1328	-65.7664	23.9461	-53.5119	-69.2722	9.76774	-71.3938	-73.7696	50.6289	-87.0204	-60.759	22.9649	-92.9121	-58.2967	-6.23699	-88.721	-95.3066	33.9811	-90.6584	-86.8347	8.3028	-70.2363	-92.0846	30.9286	-40.9568	-110.016	27.1898	-85.505	-99.3997	6.69658	-63.2648	-103.826	31.4077	-37.1626	-137.18	25.7579	-86.6935	-133.661	3.60591	-94.157	-126.916	-18.721	-105.703	-135.983	74.6961	-64.6595	-142.604	87.7476	-42.0992	-113.866	93.1032	-46.6982	
210	1.75	-91.4462	77.7272	-26.4279	-75.7194	52.0963	-33.8231	-67.4846	34.265	-55.1034	-73.0466	17.1961	-76.2675	-71.4607	53.1363	-90.0222	-56.9384	28.0101	-95.131	-54.9268	2.08724	-94.2419	-93.6164	34.7633	-91.7369	-83.2617	12.6364	-75.0908	-94.5608	32.1037	-40.8287	-111.899	24.7845	-85.7507	-98.2218	9.57447	-65.222	-103.117	31.3099	-39.2868	-139.179	25.5476	-87.861	-130.838	2.92241	-96.0883	-121.218	-17.1014	-106.727	-139.377	75.9521	-64.7592	-151.891	86.0835	-38.5029	-115.972	92.3148	-50.8637	
211	1.75833	-97.9042	83.1963	-26.8533	-77.4852	63.232	-42.0237	-69.4945	45.1064	-63.7543	-87.4058	30.5669	-74.8163	-72.9628	58.094	-92.4911	-60.3146	36.1966	-98.0463	-49.9555	6.90574	-97.7372	-94.8562	38.2557	-92.6476	-79.6582	15.8578	-76.7403	-90.7169	30.159	-40.3861	-107.929	23.526	-87.7716	-93.8503	10.821	-62.9136	-102.093	35.295	-39.652	-134.006	22.6946	-90.9617	-125.755	4.87802	-96.344	-115.028	-15.0113	-107.708	-144.051	70.1663	-69.061	-155.321	81.2332	-43.9231	-120.16	96.0746	-52.5693	
212	1.76667	-97.9315	92.2681	-29.9846	-74.8141	75.1814	-44.6334	-76.0055	54.1544	-69.5552	-96.3161	37.2449	-73.9244	-76.5487	64.5656	-95.0839	-59.1217	46.8243	-101.527	-44.0755	21.8697	-101.722	-90.5913	47.3088	-92.8657	-76.3479	21.4753	-76.1273	-81.9281	35.0509	-41.6486	-105.105	30.4756	-90.1236	-86.9851	17.5083	-66.2265	-95.2288	34.5795	-42.8196	-130.624	26.1273	-88.1218	-119.319	5.99095	-98.5917	-108.993	-14.8501	-107.509	-146.584	67.1999	-67.9242	-160.291	79.302	-43.1899	-128.567	91.613	-54.7646	
213	1.775	-107.087	94.2817	-32.3549	-77.8358	81.3568	-50.6511	-82.3755	60.1969	-72.6435	-103.887	38.516	-76.7769	-80.64	69.9647	-101.037	-60.4049	57.2013	-106.817	-46.8147	34.8261	-108.69	-88.0842	48.1096	-96.5873	-69.8496	32.3757	-81.0673	-78.0802	38.439	-44.793	-103.565	33.9167	-93.2197	-80.8988	23.3236	-72.3892	-87.678	40.0682	-46.4337	-124.818	25.52	-91.4564	-110.576	9.67418	-102.816	-98.7053	-9.76381	-115.897	-148.134	63.8876	-69.8085	-160.888	73.1834	-43.8345	-133.016	95.6101	-54.4499	
214	1.78333	-109.54	98.0187	-36.6356	-84.0309	84.6054	-57.3212	-85.644	61.893	-76.4321	-102.077	42.877	-75.4052	-85.5156	78.2443	-105.595	-65.6556	64.7359	-112.308	-42.4604	47.9694	-115.824	-91.9568	56.4657	-99.7067	-64.1775	44.3461	-81.9567	-71.0906	50.8162	-47.6339	-101.837	36.7532	-95.1622	-77.6488	28.2615	-77.8225	-87.0929	45.5423	-47.9292	-121.913	25.7787	-93.1566	-104.727	10.8661	-105.776	-89.8898	-4.71553	-120.077	-148.062	63.0999	-72.7884	-160.174	70.5292	-44.3541	-140.658	93.232	-58.9521	
215	1.79167	-112.522	98.3308	-41.4336	-86.5592	89.8811	-60.0165	-85.2865	66.1082	-78.8769	-99.1431	45.6059	-77.5904	-94.8194	82.6189	-106.441	-71.7862	73.4271	-118.213	-49.2207	59.9597	-124.026	-91.0068	56.9573	-102.365	-65.6139	50.7605	-89.0308	-69.4627	58.026	-49.6217	-95.4277	41.0355	-98.4607	-74.4971	33.8832	-78.7291	-81.4172	51.8626	-51.3531	-117.128	24.3234	-95.1313	-101.376	16.2323	-105.46	-83.9428	3.66009	-122.365	-147.527	57.7833	-70.8529	-161.726	68.9383	-43.6216	-142.757	91.7664	-62.5291	
216	1.8	-117.932	100.46	-39.2672	-90.5168	93.7277	-63.028	-83.284	75.1549	-81.5675	-97.0455	48.8181	-80.7636	-98.9759	86.3131	-110.683	-73.473	79.0136	-124.998	-52.651	70.5369	-133.066	-93.9955	64.2024	-104.241	-62.9302	57.42	-89.1111	-71.3696	61.3088	-52.8651	-98.7274	43.911	-97.4396	-71.9906	40.6686	-79.25	-82.3923	57.9186	-51.8314	-113.759	27.692	-95.8016	-98.1969	18.5861	-105.521	-80.8973	9.13889	-123.651	-147.409	58.2485	-72.1308	-160.118	59.967	-44.7405	-145.756	87.7211	-61.2694	
217	1.80833	-118.941	103.055	-44.8102	-91.9793	98.2914	-62.8469	-79.8061	85.3325	-80.2763	-86.4076	57.6869	-85.1966	-103.014	87.987	-113.164	-83.8291	83.7813	-126.468	-58.2821	79.1998	-138.556	-91.6998	63.027	-106.509	-65.5368	61.6888	-90.8094	-75.1578	66.5062	-54.8934	-93.9431	44.3695	-97.4277	-71.1945	43.458	-78.8657	-85.3444	62.2497	-50.9862	-112.147	26.0072	-92.3537	-95.6671	15.3123	-104.387	-76.9856	9.05865	-123.539	-147.813	53.5763	-71.5699	-159.386	56.0231	-41.7367	-148.794	83.2693	-60.9894	
218	1.81667	-121.173	99.6671	-45.9712	-90.6983	98.4005	-57.0926	-73.1291	88.9178	-77.7063	-68.424	64.3507	-90.3864	-110.648	85.5744	-113.62	-90.4914	84.2648	-129.037	-66.5072	82.7899	-143.466	-95.9081	61.2182	-107.807	-70.9126	62.7788	-91.2409	-89.362	70.6939	-57.8998	-96.8815	43.4091	-96.6669	-71.3315	51.8468	-77.8063	-86.0006	61.689	-51.8372	-111.076	22.1419	-90.7839	-91.5539	19.6135	-107.113	-76.5314	10.6791	-125.141	-147.842	47.8413	-69.4706	-160.102	48.7508	-42.186	-154.477	78.1894	-59.1103	
219	1.825	-125.688	96.3109	-45.8824	-93.0058	99.0135	-57.8809	-73.4523	89.0483	-80.8775	-66.2652	69.5938	-90.3556	-118.526	83.3458	-114.808	-98.4047	82.5768	-132.412	-72.5385	83.8224	-148.482	-102.161	60.7613	-107.567	-74.3771	63.7282	-93.4825	-94.3305	70.803	-61.7294	-93.8236	44.1079	-97.927	-74.2377	54.9191	-81.9097	-90.398	66.1461	-51.8671	-108.437	24.3862	-92.4885	-90.8035	16.7345	-104.141	-75.4533	13.9435	-122.155	-145.886	41.5723	-67.9674	-160.005	45.2608	-41.0726	-155.137	71.6023	-60.5451	
220	1.83333	-130.994	94.8077	-46.2906	-98.8694	97.5451	-61.0347	-78.4491	91.7021	-81.0502	-71.7735	67.2691	-94.9573	-125.375	77.9744	-116.153	-105.051	82.231	-136.177	-86.3934	83.7379	-150.867	-110.057	59.7687	-110.436	-80.2472	68.0518	-99.5304	-100.382	74.3403	-66.8109	-97.141	41.818	-100.414	-76.8055	53.0448	-82.6638	-93.0006	65.7556	-56.7622	-106.705	17.3011	-95.7115	-91.3944	16.0944	-106.452	-71.7516	16.1835	-125.225	-145.915	33.2159	-67.663	-157.181	40.8716	-40.6458	-158.965	67.7869	-60.5695	
221	1.84167	-137.175	91.7307	-47.672	-104.518	94.8541	-66.296	-85.6854	86.6115	-88.1276	-77.3554	64.7522	-100.992	-134.755	71.9973	-117.057	-117.747	77.2471	-136.918	-96.6899	80.4704	-154.725	-118.406	55.0021	-115.857	-87.8879	62.5947	-105.32	-105.673	69.8977	-71.635	-106.01	40.8839	-103.297	-83.2158	53.7379	-87.0356	-100.589	63.3021	-58.1473	-112.059	17.1706	-97.9296	-93.1206	13.8358	-109.617	-70.8805	14.1578	-125.716	-149.498	30.4779	-68.3089	-161.322	30.8924	-34.4701	-164.616	62.5023	-60.7485	
222	1.85	-145.878	82.5251	-50.4257	-115.275	88.8018	-71.6203	-98.178	82.5001	-95.0024	-88.8502	58	-107.467	-149.046	65.719	-118.069	-133.689	72.5092	-138.444	-116.91	75.9693	-157.962	-131.392	46.4529	-116.745	-100.41	60.4507	-111.58	-113.831	64.8702	-76.4674	-114.535	36.0357	-107.607	-92.0844	50.4608	-93.4614	-106.398	58.2744	-63.1046	-119.967	10.5002	-95.3337	-97.6765	9.42124	-115.292	-76.9878	13.207	-131.776	-154.396	19.431	-67.3412	-162.36	24.9389	-35.7635	-170.278	49.2364	-55.4243	
